#!OML:ASF X:\für Bonn\!DataBase\2005_08_10_Bjorn_Final\c3d\bjorn.ASF
:FULLY-SPECIFIED
:DEGREES
81
root 0.474582 8.70412 3.44011 -181.932 -0.855223 -179.752
lowerback 25.6901 1.38773 6.51319
upperback 11.9738 0.254122 1.05256
thorax -0.776631 -0.903204 -2.6131
lowerneck -22.1061 -1.96019 -0.0953347
upperneck 1.32706 -3.08044 -2.54553
head 3.79258 -1.97593 -1.08949
rclavicle -1.39149e-014 2.38542e-015
rhumerus 76.7835 2.16477 -70.7713
rradius 11.4158
rwrist 41.3574
rhand -16.7254 10.32
rfingers 7.12502
rthumb 9.50032 -19.4459
lclavicle -1.39149e-014 2.38542e-015
lhumerus 77.8555 -12.7293 78.2984
lradius 6.99289
lwrist -52.0313
lhand -27.602 -7.76164
lfingers 7.12502
lthumb -1.00153 22.2158
rfemur -67.385 -84.7343 -15.6394
rtibia 148.757
rfoot -55.1599 59.3729
rtoes -28.9994
lfemur -87.012 70.9596 -13.9595
ltibia 151.62
lfoot -44.532 -34.7419
ltoes -32.8633
82
root 0.468657 8.56253 3.43429 -182.319 -0.865709 -179.763
lowerback 26.0248 1.40454 6.60277
upperback 12.2028 0.201194 1.09757
thorax -0.673507 -0.964459 -2.60318
lowerneck -22.3283 -1.90341 0.068181
upperneck 1.17638 -3.0674 -2.75783
head 3.77239 -1.99587 -1.18334
rclavicle -2.78299e-015 4.77083e-015
rhumerus 76.7048 2.154 -70.6103
rradius 11.7625
rwrist 41.3544
rhand -16.8024 10.2528
rfingers 7.12502
rthumb 9.426 -19.5165
lclavicle -2.78299e-015 4.77083e-015
lhumerus 78.0583 -12.6002 78.2729
lradius 6.55126
lwrist -52.0051
lhand -27.7613 -7.79978
lfingers 7.12502
lthumb -1.15533 22.1768
rfemur -19.6743 -87.5428 -64.8055
rtibia 149.791
rfoot -59.2236 59.6998
rtoes -29.6678
lfemur -87.125 75.8795 -13.1534
ltibia 152.623
lfoot -46.1976 -36.0019
ltoes -32.1523
83
root 0.461979 8.433 3.42687 -182.675 -0.875011 -179.796
lowerback 26.3083 1.42107 6.67274
upperback 12.4231 0.145704 1.13605
thorax -0.555993 -1.02485 -2.58863
lowerneck -22.4917 -1.84 0.218313
upperneck 1.01821 -3.04164 -2.96149
head 3.74204 -2.00783 -1.27015
rclavicle -1.59028e-015 3.65764e-014
rhumerus 76.7151 2.17685 -70.3005
rradius 12.0267
rwrist 41.1777
rhand -16.7626 10.1452
rfingers 7.12502
rthumb 9.46444 -19.6223
lclavicle -1.59028e-015 3.65764e-014
lhumerus 78.1777 -12.4713 78.2594
lradius 6.2665
lwrist -52.0568
lhand -27.7598 -7.87086
lfingers 7.12502
lthumb -1.15389 22.1058
rfemur 44.9994 -86.1213 -130.944
rtibia 150.73
rfoot -62.9744 59.8207
rtoes -30.3714
lfemur -86.3886 80.543 -11.5345
ltibia 153.545
lfoot -47.9566 -37.0124
ltoes -31.5658
84
root 0.455873 8.3146 3.41874 -183.053 -0.885263 -179.806
lowerback 26.5989 1.43998 6.76571
upperback 12.6605 0.08938 1.18329
thorax -0.41971 -1.0877 -2.57753
lowerneck -22.6858 -1.78792 0.362188
upperneck 0.88015 -3.03109 -3.14548
head 3.72245 -2.02662 -1.35199
rclavicle 7.95139e-015 2.62396e-014
rhumerus 76.8088 2.19203 -69.8385
rradius 12.1985
rwrist 40.9148
rhand -16.5654 10.0613
rfingers 7.12502
rthumb 9.65465 -19.6975
lclavicle 7.95139e-015 2.62396e-014
lhumerus 78.2615 -12.3698 78.2546
lradius 6.10314
lwrist -52.141
lhand -27.715 -7.85943
lfingers 7.12502
lthumb -1.11063 22.1174
rfemur 60.5739 -83.1909 -147.901
rtibia 151.58
rfoot -66.469 59.7813
rtoes -30.9383
lfemur -82.2168 84.9081 -6.49237
ltibia 154.363
lfoot -49.8355 -37.7652
ltoes -31.2431
85
root 0.450357 8.20884 3.41078 -183.379 -0.894806 -179.838
lowerback 26.8465 1.46097 6.82511
upperback 12.8682 0.0395179 1.22394
thorax -0.297242 -1.14407 -2.55594
lowerneck -22.8029 -1.72867 0.503296
upperneck 0.752286 -3.00543 -3.31715
head 3.69572 -2.03413 -1.42687
rclavicle -1.74931e-014 -8.74653e-015
rhumerus 76.8752 2.23089 -69.4374
rradius 12.2987
rwrist 40.5458
rhand -16.2997 10.0207
rfingers 7.12502
rthumb 9.91104 -19.726
lclavicle -1.74931e-014 -8.74653e-015
lhumerus 78.2467 -12.3088 78.2672
lradius 6.06383
lwrist -52.2658
lhand -27.5377 -7.85554
lfingers 7.12502
lthumb -0.939412 22.1221
rfemur 65.45 -80.3807 -154.097
rtibia 152.336
rfoot -69.6778 59.5634
rtoes -31.5487
lfemur -54.2929 88.5028 22.2631
ltibia 155.095
lfoot -51.6272 -38.277
ltoes -31.1468
86
root 0.443601 8.11602 3.40395 -183.698 -0.904454 -179.85
lowerback 27.1084 1.47038 6.91885
upperback 13.062 -0.0135421 1.26438
thorax -0.194607 -1.20047 -2.5528
lowerneck -22.8804 -1.67233 0.625199
upperneck 0.596622 -2.98161 -3.47074
head 3.6552 -2.04135 -1.4922
rclavicle 7.55382e-015 -2.38542e-014
rhumerus 76.8746 2.34311 -68.7724
rradius 12.3953
rwrist 39.7792
rhand -16.0022 9.94101
rfingers 7.12502
rthumb 10.198 -19.7918
lclavicle 7.55382e-015 -2.38542e-014
lhumerus 78.1688 -12.2778 78.2912
lradius 6.13788
lwrist -52.3443
lhand -27.2456 -7.83536
lfingers 7.12502
lthumb -0.657277 22.1434
rfemur 67.0368 -78.048 -156.884
rtibia 152.99
rfoot -72.2609 59.3915
rtoes -32.0064
lfemur -118.043 92.4421 -40.7046
ltibia 155.75
lfoot -53.34 -38.4281
ltoes -31.3663
87
root 0.437221 8.036 3.39737 -183.975 -0.914965 -179.881
lowerback 27.3237 1.47592 6.97696
upperback 13.2554 -0.0809798 1.30319
thorax -0.0729637 -1.26381 -2.52786
lowerneck -22.9502 -1.6137 0.707712
upperneck 0.452483 -2.94524 -3.58443
head 3.61853 -2.03948 -1.5376
rclavicle 2.26615e-014 -4.77083e-015
rhumerus 76.842 2.50531 -68.2302
rradius 12.4923
rwrist 38.9243
rhand -15.7273 9.9524
rfingers 7.12502
rthumb 10.4632 -19.7672
lclavicle 2.26615e-014 -4.77083e-015
lhumerus 77.9885 -12.2517 78.3301
lradius 6.37592
lwrist -52.3087
lhand -26.7459 -7.8191
lfingers 7.12502
lthumb -0.174675 22.1606
rfemur 67.5922 -76.1325 -158.567
rtibia 153.556
rfoot -74.3041 59.2623
rtoes -32.3473
lfemur -106.169 95.2127 -28.1751
ltibia 156.304
lfoot -54.8874 -38.418
ltoes -31.5685
88
root 0.431028 7.9711 3.39303 -184.224 -0.915412 -179.913
lowerback 27.564 1.49034 7.04151
upperback 13.421 -0.123901 1.33714
thorax 0.00863069 -1.31294 -2.51727
lowerneck -23.0276 -1.564 0.798761
upperneck 0.367255 -2.91551 -3.68987
head 3.60129 -2.03789 -1.5831
rclavicle 4.77083e-015 -3.97569e-015
rhumerus 76.7445 2.64132 -67.7212
rradius 12.5983
rwrist 37.9869
rhand -15.6058 10.0303
rfingers 7.12502
rthumb 10.5804 -19.6834
lclavicle 4.77083e-015 -3.97569e-015
lhumerus 77.6995 -12.294 78.3891
lradius 6.7424
lwrist -52.1502
lhand -26.1765 -7.81288
lfingers 7.12502
lthumb 0.375248 22.1665
rfemur 67.6431 -74.6596 -159.549
rtibia 154.01
rfoot -75.9017 59.0239
rtoes -32.7665
lfemur -103.61 97.5049 -25.0764
ltibia 156.761
lfoot -56.2998 -38.0539
ltoes -32.2102
89
root 0.424296 7.92514 3.3915 -184.432 -0.92695 -179.946
lowerback 27.7721 1.49415 7.12088
upperback 13.5984 -0.182499 1.35191
thorax 0.11884 -1.36755 -2.53262
lowerneck -23.0089 -1.48868 0.947358
upperneck 0.151507 -2.87828 -3.79045
head 3.52935 -2.03327 -1.6323
rclavicle -2.38542e-014 -3.57812e-014
rhumerus 76.6561 2.77177 -67.2627
rradius 12.7481
rwrist 36.995
rhand -15.5954 10.1141
rfingers 7.12502
rthumb 10.5904 -19.5991
lclavicle -2.38542e-014 -3.57812e-014
lhumerus 77.4228 -12.331 78.4123
lradius 7.15162
lwrist -51.8733
lhand -25.5554 -7.83016
lfingers 7.12502
lthumb 0.97515 22.1474
rfemur 67.3673 -73.7173 -159.993
rtibia 154.345
rfoot -76.8454 58.8925
rtoes -33.0065
lfemur -102.973 99.0475 -24.0956
ltibia 157.072
lfoot -57.1568 -37.8617
ltoes -32.4909
90
root 0.416534 7.89842 3.39184 -184.589 -0.917641 -179.981
lowerback 27.9511 1.50484 7.17285
upperback 13.7273 -0.217937 1.38153
thorax 0.187279 -1.40697 -2.52133
lowerneck -22.8701 -1.44805 1.00766
upperneck -0.00412328 -2.84993 -3.81449
head 3.46107 -2.02119 -1.64263
rclavicle 1.11319e-014 3.26007e-014
rhumerus 76.5066 2.94678 -66.6661
rradius 12.87
rwrist 36.0119
rhand -15.834 10.2215
rfingers 7.12502
rthumb 10.3602 -19.5033
lclavicle 1.11319e-014 3.26007e-014
lhumerus 77.1628 -12.366 78.4715
lradius 7.39787
lwrist -51.501
lhand -25.0712 -7.95364
lfingers 7.12502
lthumb 1.44282 22.0212
rfemur 67.0118 -73.3105 -160.071
rtibia 154.529
rfoot -77.1926 58.7746
rtoes -33.1268
lfemur -102.826 100.004 -23.8205
ltibia 157.266
lfoot -57.7501 -37.5232
ltoes -32.8056
91
root 0.4085 7.88866 3.39442 -184.708 -0.928323 -180.016
lowerback 28.0836 1.5029 7.23968
upperback 13.8675 -0.270666 1.39123
thorax 0.289632 -1.45154 -2.53669
lowerneck -22.8101 -1.38707 1.11351
upperneck -0.101269 -2.803 -3.84014
head 3.42212 -2.00006 -1.6611
rclavicle 1.70955e-014 1.66979e-014
rhumerus 76.4159 3.07523 -66.2607
rradius 12.9261
rwrist 35.3466
rhand -16.2549 10.3797
rfingers 7.12502
rthumb 9.95429 -19.365
lclavicle 1.70955e-014 1.66979e-014
lhumerus 77.07 -12.3482 78.4664
lradius 7.43533
lwrist -51.1383
lhand -24.7118 -8.02256
lfingers 7.12502
lthumb 1.78992 21.9497
rfemur 66.6586 -73.1589 -159.939
rtibia 154.612
rfoot -77.2214 58.6744
rtoes -33.1921
lfemur -102.98 100.435 -24.0061
ltibia 157.335
lfoot -57.9184 -37.4849
ltoes -32.6834
